<svg xmlns="http://www.w3.org/2000/svg" xmlns:xlink="http://www.w3.org/1999/xlink" xml:space="preserve" version="1.1" style="shape-rendering:geometricPrecision;text-rendering:geometricPrecision;image-rendering:optimizeQuality;" viewBox="0 0 1.725 2.15625" x="0px" y="0px" fill-rule="evenodd" clip-rule="evenodd"><defs><style type="text/css">
   
    .fil0 {fill:none}
    .fil1 {fill:#2c2045;fill-rule:nonzero}
   
  </style></defs><g><g><path class="fil0" d="M0 1.725c0,-0.575 0,-1.15 0,-1.725 0.575,0 1.15,0 1.725,0 0,0.575 0,1.15 0,1.725 -0.575,0 -1.15,0 -1.725,0z"/><path class="fil1" d="M0.189 0l0.01 0 1.327 0 0.01 0c0.052,0 0.099,0.021 0.134,0.055 0.034,0.035 0.055,0.082 0.055,0.134l0 0.01 0 0.34 0 0.997c0,0.052 -0.021,0.099 -0.055,0.134 -0.035,0.034 -0.082,0.055 -0.134,0.055l-1.347 0c-0.052,0 -0.099,-0.021 -0.134,-0.055 -0.034,-0.035 -0.055,-0.082 -0.055,-0.134l0 -0.997 0 -0.34 0 -0.01c0,-0.052 0.021,-0.099 0.055,-0.134 0.035,-0.034 0.082,-0.055 0.134,-0.055zm0.795 1.123l0.132 0.133c0.021,0.021 0.021,0.055 0,0.076 -0.021,0.021 -0.055,0.021 -0.076,0l-0.132 -0.133 -0.113 0.113c-0.021,0.021 -0.055,0.021 -0.076,0 -0.008,-0.008 -0.013,-0.017 -0.015,-0.027l-0.109 -0.409c-0.008,-0.028 0.009,-0.058 0.038,-0.065 0.01,-0.003 0.019,-0.003 0.028,0l0.411 0.11c0.029,0.007 0.046,0.037 0.038,0.066 -0.003,0.009 -0.007,0.017 -0.014,0.024l-0.112 0.112zm-0.145 -0.153l-0.116 -0.031 0.062 0.231 0.084 -0.085 0.001 0 0.084 -0.084 -0.115 -0.031zm-0.3 -0.754l0 0c0.03,0 0.054,0.024 0.054,0.054l0 0c0,0.029 -0.024,0.053 -0.054,0.053l0 0c-0.03,0 -0.054,-0.024 -0.054,-0.053l0 0c0,-0.03 0.024,-0.054 0.054,-0.054zm0.162 0l0.647 0c0.029,0 0.054,0.024 0.054,0.054l0 0c0,0.029 -0.025,0.053 -0.054,0.053l-0.647 0c-0.03,0 -0.054,-0.024 -0.054,-0.053l0 0c0,-0.03 0.024,-0.054 0.054,-0.054zm-0.324 0l0 0c0.03,0 0.054,0.024 0.054,0.054l0 0c0,0.029 -0.024,0.053 -0.054,0.053l0 0c-0.029,0 -0.054,-0.024 -0.054,-0.053l0 0c0,-0.03 0.025,-0.054 0.054,-0.054zm1.24 0.323l-1.509 0 0 0.997c0,0.023 0.009,0.043 0.024,0.057 0.014,0.015 0.034,0.024 0.057,0.024l1.347 0c0.023,0 0.043,-0.009 0.057,-0.024 0.015,-0.014 0.024,-0.034 0.024,-0.057l0 -0.997zm-1.418 -0.431c-0.025,0 -0.048,0.01 -0.064,0.027l0 0c-0.017,0.016 -0.027,0.039 -0.027,0.064l0 0.232 1.509 0 0 -0.232c0,-0.025 -0.01,-0.048 -0.027,-0.064l0 0c-0.016,-0.017 -0.039,-0.027 -0.064,-0.027l-1.327 0z"/></g></g><text x="0" y="16.725" fill="#000000" font-size="5px" font-weight="bold" font-family="'Helvetica Neue', Helvetica, Arial-Unicode, Arial, Sans-serif">Created by Deemak Daksina S</text><text x="0" y="21.725" fill="#000000" font-size="5px" font-weight="bold" font-family="'Helvetica Neue', Helvetica, Arial-Unicode, Arial, Sans-serif">from the Noun Project</text></svg>